<?xml version="1.0" encoding="utf-8"?>
<!-- Generator: Adobe Illustrator 27.5.0, SVG Export Plug-In . SVG Version: 6.00 Build 0)  -->
<svg version="1.1" xmlns="http://www.w3.org/2000/svg" xmlns:xlink="http://www.w3.org/1999/xlink" x="0px" y="0px"
	 viewBox="0 0 750 500" style="enable-background:new 0 0 750 500;" xml:space="preserve">
<g id="Background_Complete">
	<g>
		<g>
			<g>
				<g>
					<rect x="384.538" y="223.266" style="fill:#EBEBEB;" width="77.731" height="203.458"/>
				</g>
			</g>
			<g>
				<g>
					<rect x="423.404" y="223.266" style="fill:#E0E0E0;" width="38.865" height="203.458"/>
				</g>
			</g>
			<g>
				<g>
					<rect x="393.414" y="199.081" style="fill:#EBEBEB;" width="27.449" height="24.185"/>
				</g>
			</g>
			<g>
				<g>
					<rect x="414.321" y="199.081" style="fill:#E0E0E0;" width="6.542" height="24.185"/>
				</g>
			</g>
			<g>
				<g>
					<rect x="378.06" y="221.856" style="fill:#E0E0E0;" width="86.484" height="1.411"/>
				</g>
			</g>
			<g>
				<g>
					<rect x="399.882" y="233.814" style="fill:#FFFFFF;" width="6.58" height="13.873"/>
				</g>
			</g>
			<g>
				<g>
					<g>
						<path style="fill:#E0E0E0;" d="M423.404,253.133c0,0.146-8.701,0.265-19.432,0.265c-10.734,0-19.434-0.118-19.434-0.265
							c0-0.146,8.699-0.265,19.434-0.265C414.703,252.868,423.404,252.986,423.404,253.133z"/>
					</g>
				</g>
			</g>
			<g>
				<g>
					<g>
						<rect x="439.085" y="233.814" style="fill:#F5F5F5;" width="6.579" height="13.873"/>
					</g>
				</g>
				<g>
					<g>
						<g>
							<path style="fill:#EBEBEB;" d="M462.607,253.133c0,0.146-8.701,0.265-19.432,0.265c-10.734,0-19.434-0.118-19.434-0.265
								c0-0.146,8.699-0.265,19.434-0.265C453.906,252.868,462.607,252.986,462.607,253.133z"/>
						</g>
					</g>
				</g>
			</g>
			<g>
				<g>
					<g>
						<rect x="439.085" y="261.359" style="fill:#F5F5F5;" width="6.579" height="13.874"/>
					</g>
				</g>
				<g>
					<g>
						<g>
							<path style="fill:#EBEBEB;" d="M462.607,280.677c0,0.146-8.701,0.265-19.432,0.265c-10.734,0-19.434-0.119-19.434-0.265
								c0-0.146,8.699-0.265,19.434-0.265C453.906,280.413,462.607,280.531,462.607,280.677z"/>
						</g>
					</g>
				</g>
			</g>
			<g>
				<g>
					<g>
						<rect x="439.085" y="289.734" style="fill:#F5F5F5;" width="6.579" height="13.874"/>
					</g>
				</g>
				<g>
					<g>
						<g>
							<path style="fill:#EBEBEB;" d="M462.607,309.053c0,0.146-8.701,0.265-19.432,0.265c-10.734,0-19.434-0.119-19.434-0.265
								s8.699-0.265,19.434-0.265C453.906,308.788,462.607,308.907,462.607,309.053z"/>
						</g>
					</g>
				</g>
			</g>
			<g>
				<g>
					<g>
						<rect x="439.085" y="318.11" style="fill:#F5F5F5;" width="6.579" height="13.873"/>
					</g>
				</g>
				<g>
					<g>
						<g>
							<path style="fill:#EBEBEB;" d="M462.607,337.429c0,0.146-8.701,0.265-19.432,0.265c-10.734,0-19.434-0.119-19.434-0.265
								c0-0.146,8.699-0.265,19.434-0.265C453.906,337.164,462.607,337.283,462.607,337.429z"/>
						</g>
					</g>
				</g>
			</g>
			<g>
				<g>
					<g>
						<rect x="439.085" y="345.674" style="fill:#F5F5F5;" width="6.579" height="13.873"/>
					</g>
				</g>
				<g>
					<g>
						<g>
							<path style="fill:#EBEBEB;" d="M462.607,364.993c0,0.146-8.701,0.265-19.432,0.265c-10.734,0-19.434-0.119-19.434-0.265
								c0-0.146,8.699-0.265,19.434-0.265C453.906,364.728,462.607,364.847,462.607,364.993z"/>
						</g>
					</g>
				</g>
			</g>
			<g>
				<g>
					<g>
						<rect x="439.085" y="373.35" style="fill:#F5F5F5;" width="6.579" height="13.874"/>
					</g>
				</g>
				<g>
					<g>
						<rect x="439.085" y="401.388" style="fill:#F5F5F5;" width="6.579" height="13.874"/>
					</g>
				</g>
				<g>
					<g>
						<g>
							<path style="fill:#EBEBEB;" d="M462.607,392.668c0,0.146-8.701,0.265-19.432,0.265c-10.734,0-19.434-0.119-19.434-0.265
								c0-0.146,8.699-0.265,19.434-0.265C453.906,392.403,462.607,392.522,462.607,392.668z"/>
						</g>
					</g>
				</g>
			</g>
			<g>
				<g>
					<rect x="399.882" y="261.779" style="fill:#FFFFFF;" width="6.58" height="13.874"/>
				</g>
			</g>
			<g>
				<g>
					<g>
						<path style="fill:#E0E0E0;" d="M423.404,281.098c0,0.146-8.701,0.265-19.432,0.265c-10.734,0-19.434-0.119-19.434-0.265
							c0-0.146,8.699-0.265,19.434-0.265C414.703,280.833,423.404,280.952,423.404,281.098z"/>
					</g>
				</g>
			</g>
			<g>
				<g>
					<rect x="399.882" y="289.744" style="fill:#FFFFFF;" width="6.58" height="13.873"/>
				</g>
			</g>
			<g>
				<g>
					<g>
						<path style="fill:#E0E0E0;" d="M423.404,309.063c0,0.146-8.701,0.265-19.432,0.265c-10.734,0-19.434-0.118-19.434-0.265
							c0-0.146,8.699-0.265,19.434-0.265C414.703,308.798,423.404,308.917,423.404,309.063z"/>
					</g>
				</g>
			</g>
			<g>
				<g>
					<rect x="399.882" y="317.709" style="fill:#FFFFFF;" width="6.58" height="13.873"/>
				</g>
			</g>
			<g>
				<g>
					<g>
						<path style="fill:#E0E0E0;" d="M423.404,337.028c0,0.146-8.701,0.265-19.432,0.265c-10.734,0-19.434-0.118-19.434-0.265
							c0-0.146,8.699-0.265,19.434-0.265C414.703,336.763,423.404,336.882,423.404,337.028z"/>
					</g>
				</g>
			</g>
			<g>
				<g>
					<rect x="399.882" y="345.674" style="fill:#FFFFFF;" width="6.58" height="13.873"/>
				</g>
			</g>
			<g>
				<g>
					<g>
						<path style="fill:#E0E0E0;" d="M423.404,364.993c0,0.146-8.701,0.265-19.432,0.265c-10.734,0-19.434-0.119-19.434-0.265
							c0-0.146,8.699-0.265,19.434-0.265C414.703,364.728,423.404,364.847,423.404,364.993z"/>
					</g>
				</g>
			</g>
			<g>
				<g>
					<rect x="399.882" y="373.639" style="fill:#FFFFFF;" width="6.58" height="13.874"/>
				</g>
			</g>
			<g>
				<g>
					<g>
						<path style="fill:#E0E0E0;" d="M423.404,392.958c0,0.146-8.701,0.265-19.432,0.265c-10.734,0-19.434-0.119-19.434-0.265
							c0-0.146,8.699-0.265,19.434-0.265C414.703,392.693,423.404,392.812,423.404,392.958z"/>
					</g>
				</g>
			</g>
			<g>
				<g>
					<g>
						<rect x="399.882" y="401.604" style="fill:#FFFFFF;" width="6.58" height="13.874"/>
					</g>
				</g>
			</g>
		</g>
	</g>
	<g>
		<g>
			<g>
				<rect x="108.688" y="93.426" style="fill:#F5F5F5;" width="88.222" height="279.595"/>
			</g>
		</g>
		<g>
			<g>
				<rect x="152.799" y="93.426" style="fill:#EBEBEB;" width="44.111" height="278.826"/>
			</g>
		</g>
		<g>
			<g>
				<rect x="118.761" y="65.978" style="fill:#F5F5F5;" width="31.153" height="27.449"/>
			</g>
		</g>
		<g>
			<g>
				<rect x="142.49" y="65.978" style="fill:#EBEBEB;" width="7.425" height="27.449"/>
			</g>
		</g>
		<g>
			<g>
				<polyline style="fill:#E0E0E0;" points="101.335,93.426 101.335,91.826 199.491,91.826 199.491,93.426 				"/>
			</g>
		</g>
		<g>
			<g>
				<rect x="126.102" y="105.398" style="fill:#FAFAFA;" width="7.467" height="15.746"/>
			</g>
		</g>
		<g>
			<g>
				<g>
					<path style="fill:#E0E0E0;" d="M152.799,127.324c0,0.166-9.876,0.301-22.055,0.301c-12.183,0-22.056-0.134-22.056-0.301
						s9.873-0.301,22.056-0.301C142.923,127.023,152.799,127.158,152.799,127.324z"/>
				</g>
			</g>
		</g>
		<g>
			<g>
				<g>
					<rect x="170.597" y="105.398" style="fill:#E0E0E0;" width="7.467" height="15.746"/>
				</g>
			</g>
			<g>
				<g>
					<g>
						<path style="fill:#E0E0E0;" d="M197.294,127.324c0,0.166-9.875,0.301-22.054,0.301c-12.183,0-22.057-0.134-22.057-0.301
							s9.873-0.301,22.057-0.301C187.418,127.023,197.294,127.158,197.294,127.324z"/>
					</g>
				</g>
			</g>
		</g>
		<g>
			<g>
				<g>
					<rect x="170.597" y="136.66" style="fill:#E0E0E0;" width="7.467" height="15.746"/>
				</g>
			</g>
			<g>
				<g>
					<g>
						<path style="fill:#E0E0E0;" d="M197.294,158.586c0,0.166-9.875,0.301-22.054,0.301c-12.183,0-22.057-0.135-22.057-0.301
							s9.873-0.301,22.057-0.301C187.418,158.286,197.294,158.42,197.294,158.586z"/>
					</g>
				</g>
			</g>
		</g>
		<g>
			<g>
				<g>
					<rect x="170.597" y="168.866" style="fill:#E0E0E0;" width="7.467" height="15.746"/>
				</g>
			</g>
			<g>
				<g>
					<g>
						<path style="fill:#E0E0E0;" d="M197.294,190.792c0,0.166-9.875,0.3-22.054,0.3c-12.183,0-22.057-0.134-22.057-0.3
							c0-0.166,9.873-0.301,22.057-0.301C187.418,190.491,197.294,190.626,197.294,190.792z"/>
					</g>
				</g>
			</g>
		</g>
		<g>
			<g>
				<g>
					<rect x="170.597" y="201.071" style="fill:#E0E0E0;" width="7.467" height="15.746"/>
				</g>
			</g>
			<g>
				<g>
					<g>
						<path style="fill:#E0E0E0;" d="M197.294,222.997c0,0.166-9.875,0.301-22.054,0.301c-12.183,0-22.057-0.135-22.057-0.301
							c0-0.166,9.873-0.3,22.057-0.3C187.418,222.697,197.294,222.831,197.294,222.997z"/>
					</g>
				</g>
			</g>
		</g>
		<g>
			<g>
				<g>
					<rect x="170.597" y="232.355" style="fill:#E0E0E0;" width="7.467" height="15.746"/>
				</g>
			</g>
			<g>
				<g>
					<g>
						<path style="fill:#E0E0E0;" d="M197.294,254.281c0,0.166-9.875,0.301-22.054,0.301c-12.183,0-22.057-0.135-22.057-0.301
							c0-0.166,9.873-0.301,22.057-0.301C187.418,253.981,197.294,254.116,197.294,254.281z"/>
					</g>
				</g>
			</g>
		</g>
		<g>
			<g>
				<g>
					<rect x="170.597" y="263.766" style="fill:#E0E0E0;" width="7.467" height="15.746"/>
				</g>
			</g>
			<g>
				<g>
					<rect x="170.597" y="295.588" style="fill:#E0E0E0;" width="7.467" height="15.746"/>
				</g>
			</g>
			<g>
				<g>
					<g>
						<path style="fill:#E0E0E0;" d="M197.294,285.692c0,0.166-9.875,0.301-22.054,0.301c-12.183,0-22.057-0.135-22.057-0.301
							c0-0.166,9.873-0.301,22.057-0.301C187.418,285.392,197.294,285.526,197.294,285.692z"/>
					</g>
				</g>
			</g>
		</g>
		<g>
			<g>
				<rect x="126.102" y="137.137" style="fill:#FAFAFA;" width="7.467" height="15.746"/>
			</g>
		</g>
		<g>
			<g>
				<g>
					<path style="fill:#E0E0E0;" d="M152.799,159.063c0,0.166-9.876,0.301-22.055,0.301c-12.183,0-22.056-0.135-22.056-0.301
						c0-0.166,9.873-0.301,22.056-0.301C142.923,158.763,152.799,158.897,152.799,159.063z"/>
				</g>
			</g>
		</g>
		<g>
			<g>
				<rect x="126.102" y="168.877" style="fill:#FAFAFA;" width="7.467" height="15.746"/>
			</g>
		</g>
		<g>
			<g>
				<g>
					<path style="fill:#E0E0E0;" d="M152.799,190.803c0,0.166-9.876,0.301-22.055,0.301c-12.183,0-22.056-0.134-22.056-0.301
						c0-0.166,9.873-0.3,22.056-0.3C142.923,190.502,152.799,190.637,152.799,190.803z"/>
				</g>
			</g>
		</g>
		<g>
			<g>
				<rect x="126.102" y="200.616" style="fill:#FAFAFA;" width="7.467" height="15.746"/>
			</g>
		</g>
		<g>
			<g>
				<g>
					<path style="fill:#E0E0E0;" d="M152.799,222.542c0,0.166-9.876,0.301-22.055,0.301c-12.183,0-22.056-0.135-22.056-0.301
						c0-0.166,9.873-0.301,22.056-0.301C142.923,222.242,152.799,222.376,152.799,222.542z"/>
				</g>
			</g>
		</g>
		<g>
			<g>
				<rect x="126.102" y="232.355" style="fill:#FAFAFA;" width="7.467" height="15.746"/>
			</g>
		</g>
		<g>
			<g>
				<g>
					<path style="fill:#E0E0E0;" d="M152.799,254.281c0,0.166-9.876,0.301-22.055,0.301c-12.183,0-22.056-0.135-22.056-0.301
						c0-0.166,9.873-0.301,22.056-0.301C142.923,253.981,152.799,254.116,152.799,254.281z"/>
				</g>
			</g>
		</g>
		<g>
			<g>
				<rect x="126.102" y="264.095" style="fill:#FAFAFA;" width="7.467" height="15.746"/>
			</g>
		</g>
		<g>
			<g>
				<g>
					<path style="fill:#E0E0E0;" d="M152.799,286.021c0,0.166-9.876,0.301-22.055,0.301c-12.183,0-22.056-0.135-22.056-0.301
						c0-0.166,9.873-0.3,22.056-0.3C142.923,285.72,152.799,285.855,152.799,286.021z"/>
				</g>
			</g>
		</g>
		<g>
			<g>
				<g>
					<rect x="126.102" y="295.834" style="fill:#FAFAFA;" width="7.467" height="15.746"/>
				</g>
			</g>
		</g>
	</g>
	<g>
		<g>
			<g>
				<g>
					<rect x="186.187" y="255.065" style="fill:#EBEBEB;" width="128.795" height="169.875"/>
				</g>
			</g>
			<g>
				<g>
					<rect x="254.592" y="255.065" style="fill:#E0E0E0;" width="60.389" height="169.875"/>
				</g>
			</g>
		</g>
		<g>
			<g>
				<g>
					<rect x="213.192" y="278.065" style="fill:#F5F5F5;" width="11.58" height="28.135"/>
				</g>
			</g>
			<g>
				<g>
					<rect x="213.192" y="388.179" style="fill:#F5F5F5;" width="11.58" height="28.135"/>
				</g>
			</g>
			<g>
				<g>
					<g>
						<path style="fill:#F5F5F5;" d="M254.592,317.241c0,0.316-15.314,0.573-34.201,0.573c-18.893,0-34.204-0.256-34.204-0.573
							c0-0.316,15.311-0.572,34.204-0.572C239.278,316.669,254.592,316.926,254.592,317.241z"/>
					</g>
				</g>
			</g>
		</g>
		<g>
			<g>
				<g>
					<rect x="213.192" y="333.539" style="fill:#F5F5F5;" width="11.58" height="28.135"/>
				</g>
			</g>
			<g>
				<g>
					<g>
						<path style="fill:#F5F5F5;" d="M254.592,372.716c0,0.316-15.314,0.573-34.201,0.573c-18.893,0-34.204-0.257-34.204-0.573
							c0-0.316,15.311-0.572,34.204-0.572C239.278,372.144,254.592,372.401,254.592,372.716z"/>
					</g>
				</g>
			</g>
		</g>
		<g>
			<g>
				<rect x="267.416" y="278.065" style="fill:#F5F5F5;" width="11.58" height="28.135"/>
			</g>
		</g>
		<g>
			<g>
				<rect x="292.54" y="278.065" style="fill:#F5F5F5;" width="11.58" height="28.135"/>
			</g>
		</g>
		<g>
			<g>
				<rect x="267.416" y="331.452" style="fill:#F5F5F5;" width="11.58" height="28.135"/>
			</g>
		</g>
		<g>
			<g>
				<rect x="292.54" y="331.452" style="fill:#F5F5F5;" width="11.58" height="28.135"/>
			</g>
		</g>
		<g>
			<g>
				<rect x="267.416" y="384.839" style="fill:#F5F5F5;" width="11.58" height="28.135"/>
			</g>
		</g>
		<g>
			<g>
				<rect x="292.54" y="384.839" style="fill:#F5F5F5;" width="11.58" height="28.135"/>
			</g>
		</g>
		<g>
			<g>
				<rect x="176.505" y="249.152" style="fill:#E0E0E0;" width="148.158" height="6.125"/>
			</g>
		</g>
		<g>
			<g>
				<g>
					<path style="fill:#EBEBEB;" d="M315.881,255.854c0,0.316-28.787,0.573-64.289,0.573c-35.514,0-64.295-0.257-64.295-0.573
						c0-0.316,28.781-0.572,64.295-0.572C287.094,255.282,315.881,255.538,315.881,255.854z"/>
				</g>
			</g>
		</g>
	</g>
	<g>
		<g>
			<g>
				<g>
					<polygon style="fill:#EBEBEB;" points="183.47,424.969 53.649,424.969 53.084,219.795 182.905,219.795 					"/>
				</g>
			</g>
			<g>
				<g>
					<rect x="117.995" y="219.795" style="fill:#E0E0E0;" width="64.91" height="205.173"/>
				</g>
			</g>
			<g>
				<g>
					<rect x="67.908" y="179.403" style="fill:#EBEBEB;" width="45.843" height="40.392"/>
				</g>
			</g>
			<g>
				<g>
					<rect x="102.825" y="179.403" style="fill:#E0E0E0;" width="10.926" height="40.392"/>
				</g>
			</g>
			<g>
				<g>
					<rect x="42.265" y="217.439" style="fill:#E0E0E0;" width="144.439" height="2.356"/>
				</g>
			</g>
			<g>
				<g>
					<rect x="78.71" y="237.411" style="fill:#FFFFFF;" width="10.989" height="23.171"/>
				</g>
			</g>
			<g>
				<g>
					<g>
						<path style="fill:#E0E0E0;" d="M117.995,269.676c0,0.245-14.532,0.442-32.454,0.442c-17.928,0-32.457-0.198-32.457-0.442
							c0-0.244,14.529-0.443,32.457-0.443C103.463,269.233,117.995,269.431,117.995,269.676z"/>
					</g>
				</g>
			</g>
			<g>
				<g>
					<g>
						<rect x="144.185" y="237.411" style="fill:#F5F5F5;" width="10.989" height="23.171"/>
					</g>
				</g>
				<g>
					<g>
						<g>
							<path style="fill:#EBEBEB;" d="M183.47,269.676c0,0.245-14.532,0.442-32.453,0.442c-17.928,0-32.457-0.198-32.457-0.442
								c0-0.244,14.528-0.443,32.457-0.443C168.938,269.233,183.47,269.431,183.47,269.676z"/>
						</g>
					</g>
				</g>
			</g>
			<g>
				<g>
					<g>
						<rect x="144.185" y="283.414" style="fill:#F5F5F5;" width="10.989" height="23.171"/>
					</g>
				</g>
				<g>
					<g>
						<g>
							<path style="fill:#EBEBEB;" d="M183.47,315.679c0,0.245-14.532,0.443-32.453,0.443c-17.928,0-32.457-0.198-32.457-0.443
								c0-0.244,14.528-0.442,32.457-0.442C168.938,315.237,183.47,315.435,183.47,315.679z"/>
						</g>
					</g>
				</g>
			</g>
			<g>
				<g>
					<g>
						<rect x="144.185" y="330.806" style="fill:#F5F5F5;" width="10.989" height="23.171"/>
					</g>
				</g>
				<g>
					<g>
						<g>
							<path style="fill:#EBEBEB;" d="M183.47,363.07c0,0.244-14.532,0.443-32.453,0.443c-17.928,0-32.457-0.198-32.457-0.443
								c0-0.244,14.528-0.442,32.457-0.442C168.938,362.628,183.47,362.826,183.47,363.07z"/>
						</g>
					</g>
				</g>
			</g>
			<g>
				<g>
					<g>
						<rect x="144.185" y="378.197" style="fill:#F5F5F5;" width="10.989" height="23.171"/>
					</g>
				</g>
				<g>
					<g>
						<g>
							<path style="fill:#EBEBEB;" d="M183.47,410.461c0,0.244-14.532,0.443-32.453,0.443c-17.928,0-32.457-0.198-32.457-0.443
								c0-0.244,14.528-0.442,32.457-0.442C168.938,410.019,183.47,410.217,183.47,410.461z"/>
						</g>
					</g>
				</g>
			</g>
			<g>
				<g>
					<rect x="78.71" y="284.117" style="fill:#FFFFFF;" width="10.989" height="23.171"/>
				</g>
			</g>
			<g>
				<g>
					<g>
						<path style="fill:#E0E0E0;" d="M117.995,316.381c0,0.245-14.532,0.443-32.454,0.443c-17.928,0-32.457-0.198-32.457-0.443
							c0-0.244,14.529-0.442,32.457-0.442C103.463,315.939,117.995,316.137,117.995,316.381z"/>
					</g>
				</g>
			</g>
			<g>
				<g>
					<rect x="78.71" y="330.822" style="fill:#FFFFFF;" width="10.989" height="23.171"/>
				</g>
			</g>
			<g>
				<g>
					<g>
						<path style="fill:#E0E0E0;" d="M117.995,363.086c0,0.244-14.532,0.443-32.454,0.443c-17.928,0-32.457-0.198-32.457-0.443
							c0-0.244,14.529-0.442,32.457-0.442C103.463,362.644,117.995,362.842,117.995,363.086z"/>
					</g>
				</g>
			</g>
			<g>
				<g>
					<rect x="78.71" y="377.527" style="fill:#FFFFFF;" width="10.989" height="23.17"/>
				</g>
			</g>
			<g>
				<g>
					<g>
						<path style="fill:#E0E0E0;" d="M117.995,409.792c0,0.245-14.532,0.443-32.454,0.443c-17.928,0-32.457-0.198-32.457-0.443
							c0-0.244,14.529-0.442,32.457-0.442C103.463,409.35,117.995,409.548,117.995,409.792z"/>
					</g>
				</g>
			</g>
		</g>
	</g>
	<g>
		<g>
			<g>
				<g>
					<g>
						<path style="fill:#EBEBEB;" d="M306.397,91.555c0.472-3.432-4.371-6.256-8.011-6.549c-1.736-0.14-3.539,0.125-5.183-0.448
							c-3.563-1.242-4.986-5.844-8.462-7.311c-2.599-1.096-5.591-0.12-8.111,1.148c-2.52,1.268-5.009,2.864-7.824,3.044
							c-2.448,0.157-5.107-0.751-7.249,0.445c-1.596,0.891-2.432,2.731-3.904,3.816c-1.439,1.062-3.317,1.286-5.103,1.384
							c-1.786,0.097-3.635,0.115-5.261,0.86c-1.626,0.745-2.972,2.464-2.634,4.221L306.397,91.555z"/>
					</g>
				</g>
			</g>
		</g>
	</g>
	<g>
		<g>
			<g>
				<g>
					<g>
						<path style="fill:#FAFAFA;" d="M328.175,192.022c0.472-3.432-4.371-6.255-8.011-6.549c-1.736-0.14-3.539,0.125-5.183-0.448
							c-3.563-1.242-4.986-5.844-8.462-7.311c-2.599-1.096-5.591-0.12-8.111,1.148c-2.52,1.268-5.009,2.864-7.824,3.044
							c-2.448,0.157-5.107-0.751-7.249,0.445c-1.596,0.891-2.432,2.731-3.904,3.816c-1.439,1.062-3.317,1.286-5.103,1.384
							c-1.786,0.097-3.635,0.115-5.261,0.86c-1.626,0.745-2.972,2.464-2.634,4.221L328.175,192.022z"/>
					</g>
				</g>
			</g>
		</g>
	</g>
	<g>
		<g>
			<g>
				<g>
					<g>
						<path style="fill:#EBEBEB;" d="M692.053,100.524c0.472-3.432-4.371-6.255-8.011-6.549c-1.736-0.14-3.539,0.125-5.183-0.448
							c-3.563-1.242-4.986-5.844-8.462-7.311c-2.599-1.096-5.591-0.12-8.11,1.148c-2.519,1.268-5.009,2.864-7.824,3.044
							c-2.448,0.157-5.107-0.751-7.249,0.445c-1.596,0.891-2.432,2.731-3.904,3.816c-1.439,1.062-3.317,1.286-5.103,1.384
							c-1.786,0.097-3.635,0.115-5.261,0.86c-1.626,0.745-2.972,2.464-2.634,4.221L692.053,100.524z"/>
					</g>
				</g>
			</g>
		</g>
	</g>
	<g>
		<g>
			<g>
				<g>
					<g>
						<path style="fill:#F5F5F5;" d="M411.094,149.41c0.863-6.269-7.984-11.426-14.632-11.962c-3.17-0.256-6.464,0.229-9.467-0.818
							c-6.507-2.268-9.107-10.675-15.456-13.353c-4.747-2.002-10.212-0.22-14.814,2.096c-4.602,2.316-9.15,5.231-14.292,5.56
							c-4.472,0.286-9.329-1.372-13.242,0.813c-2.916,1.628-4.443,4.988-7.13,6.97c-2.629,1.939-6.059,2.35-9.321,2.527
							c-3.262,0.178-6.639,0.21-9.61,1.57c-2.97,1.36-5.428,4.501-4.811,7.709L411.094,149.41z"/>
					</g>
				</g>
			</g>
		</g>
	</g>
	<g>
		<g>
			<g>
				<g>
					<path style="fill:#EBEBEB;" d="M466.853,75.341c-0.013,0.034-0.365-0.095-1.02-0.227c-0.652-0.13-1.626-0.244-2.802-0.074
						c-1.168,0.166-2.545,0.643-3.749,1.641c-1.202,0.98-2.23,2.459-2.641,4.208l-0.012,0.046l-0.16,0.623l-0.239-0.591
						c-0.674-1.664-1.869-2.989-3.167-3.836c-1.301-0.862-2.701-1.225-3.874-1.316c-2.384-0.162-3.778,0.582-3.795,0.483
						c-0.009-0.02,0.317-0.209,0.964-0.419c0.644-0.207,1.625-0.417,2.849-0.36c1.215,0.054,2.69,0.402,4.065,1.287
						c1.37,0.868,2.636,2.25,3.346,4.004l-0.4,0.032l0.013-0.049c0.436-1.851,1.53-3.4,2.806-4.413
						c1.281-1.033,2.739-1.501,3.954-1.635c1.225-0.137,2.223,0.027,2.877,0.209C466.528,75.14,466.862,75.321,466.853,75.341z"/>
				</g>
			</g>
		</g>
	</g>
	<g>
		<g>
			<g>
				<g>
					<path style="fill:#EBEBEB;" d="M505.537,118.525c-0.015,0.041-0.727-0.251-2.07-0.549c-1.337-0.294-3.345-0.553-5.779-0.222
						c-2.417,0.323-5.281,1.295-7.787,3.358c-2.501,2.026-4.642,5.091-5.497,8.727c-0.008,0.033-0.017,0.066-0.025,0.097
						l-0.16,0.624l-0.24-0.591c-1.399-3.455-3.885-6.201-6.581-7.946c-2.703-1.777-5.611-2.514-8.037-2.68
						c-2.441-0.17-4.422,0.18-5.742,0.526c-1.326,0.35-2.026,0.658-2.041,0.618c-0.006-0.013,0.166-0.096,0.5-0.241
						c0.332-0.147,0.835-0.339,1.498-0.534c1.319-0.397,3.319-0.799,5.805-0.664c2.468,0.13,5.45,0.85,8.228,2.651
						c2.769,1.767,5.325,4.569,6.761,8.114l-0.4,0.032c0.008-0.031,0.017-0.065,0.025-0.099c0.879-3.739,3.086-6.874,5.662-8.933
						c2.583-2.099,5.528-3.062,7.992-3.352c2.484-0.299,4.515,0.012,5.855,0.358c0.674,0.17,1.186,0.344,1.524,0.482
						C505.367,118.435,505.542,118.512,505.537,118.525z"/>
				</g>
			</g>
		</g>
	</g>
	<g>
		<g>
			<g>
				<g>
					<path style="fill:#EBEBEB;" d="M583.09,93.628c-0.013,0.035-0.409-0.114-1.147-0.266c-0.735-0.15-1.834-0.281-3.161-0.092
						c-1.319,0.185-2.876,0.721-4.237,1.849c-1.359,1.107-2.521,2.777-2.986,4.754l-0.013,0.053l-0.16,0.623l-0.239-0.591
						c-0.761-1.88-2.113-3.378-3.579-4.333c-1.47-0.972-3.052-1.381-4.377-1.48c-1.333-0.102-2.418,0.08-3.144,0.258
						c-0.729,0.181-1.119,0.338-1.133,0.305c-0.006-0.013,0.086-0.064,0.268-0.15c0.181-0.087,0.456-0.198,0.821-0.311
						c0.725-0.23,1.83-0.463,3.207-0.397c1.367,0.063,3.024,0.456,4.568,1.451c1.539,0.977,2.961,2.53,3.759,4.5l-0.4,0.032
						l0.014-0.055c0.489-2.08,1.718-3.82,3.152-4.959c1.438-1.162,3.076-1.69,4.442-1.842c1.377-0.157,2.5,0.026,3.237,0.227
						c0.371,0.099,0.651,0.201,0.836,0.283C583.001,93.566,583.095,93.614,583.09,93.628z"/>
				</g>
			</g>
		</g>
	</g>
	<g>
		<g>
			<g>
				<g>
					<path style="fill:#EBEBEB;" d="M525.539,73.844c0.026,0.026-0.395,0.453-1.111,1.26c-0.716,0.805-1.693,2.029-2.711,3.661
						c-2.048,3.222-4.097,8.357-4.027,14.249c0,0.061-0.001,0.123-0.001,0.18l-0.418,0.035c-0.435-2.875-1.394-5.513-2.605-7.717
						c-1.208-2.211-2.626-4.007-3.966-5.358c-1.339-1.356-2.56-2.312-3.439-2.916c-0.877-0.607-1.386-0.913-1.367-0.945
						c0.007-0.013,0.141,0.052,0.389,0.186c0.244,0.142,0.623,0.322,1.068,0.624c0.913,0.566,2.175,1.496,3.557,2.842
						c1.384,1.342,2.849,3.145,4.095,5.381c1.249,2.23,2.239,4.912,2.683,7.843l-0.418,0.034c0-0.058,0.001-0.12,0.001-0.183
						c-0.072-5.994,2.061-11.197,4.196-14.413c1.063-1.63,2.084-2.836,2.842-3.612c0.366-0.401,0.691-0.673,0.896-0.871
						C525.414,73.929,525.529,73.833,525.539,73.844z"/>
				</g>
			</g>
		</g>
	</g>
</g>
<g id="Background_Simple" style="display:none;">
	<path style="display:inline;fill:#EBEBEB;" d="M460.874,148.568l0.617,2.263c5.199,19.077-0.178,39.543-14.536,52.875
		c-1.846,1.714-3.815,3.295-5.899,4.722c-14.999,10.275-35.4,12.239-52.302,5.037c-9.941-4.236-19.122-11.498-29.879-11.841
		c-13.999-0.446-25.122,10.796-34.378,21.177c-9.256,10.381-20.416,21.603-34.414,21.095c-8.766-0.318-16.82-5.419-22.887-11.822
		c-16.061-16.953-19.998-43.094-13.289-65.218c6.71-22.124,22.787-40.411,41.664-53.677c26.445-18.584,59.91-28.363,92.027-22.849
		S449.642,117.928,460.874,148.568z"/>
	
		<ellipse transform="matrix(0.7071 -0.7071 0.7071 0.7071 -110.2634 235.0273)" style="display:inline;fill:#EBEBEB;" cx="228.571" cy="250.613" rx="27.008" ry="27.008"/>
</g>
<g id="Floor">
	<g>
		<g>
			<g>
				<path style="fill:#263238;" d="M705.373,427.867c0,0.144-147.925,0.26-330.357,0.26c-182.496,0-330.389-0.117-330.389-0.26
					c0-0.144,147.893-0.26,330.389-0.26C557.448,427.607,705.373,427.723,705.373,427.867z"/>
			</g>
		</g>
	</g>
</g>
<g id="Car">
	<g>
		<g>
			<g>
				<g>
					<path style="fill:#EBEBEB;" d="M525.053,427.867c19.495-1.279,58.793-6.469,81.436-9.524c10.189-1.375,21.478-3.622,31.153-7.1
						c9.675-3.478,18.683-10.161,22.563-19.682c2.603-6.387,2.446-14.401-2.236-19.465c-5.611-6.069-15.243-5.828-23.296-3.965
						c5.246-5.182,13.148-7.519,20.368-6.023c7.22,1.495,13.544,6.778,16.3,13.618c7.52-3.827,17.287-2.69,23.727,2.762
						c6.44,5.452,9.173,14.897,6.64,22.945c6.196-2.266,13.583-0.87,18.524,3.5c4.942,4.371,6.499,16.509,5.007,22.935H525.053z"/>
				</g>
			</g>
			<g>
				<g>
					<path style="fill:#EBEBEB;" d="M589.196,413.264c9.174-1.654,18.455-3.34,26.951-7.175c1.765-0.797,3.556-1.738,4.703-3.299
						c1.147-1.561,1.449-3.902,0.201-5.383c-1.067-1.266-2.907-1.56-4.559-1.447c-3.33,0.228-6.454,1.742-9.184,3.662
						c-2.73,1.92-5.14,4.251-7.706,6.385c-3.394,2.822-7.072,5.304-10.959,7.396"/>
				</g>
			</g>
		</g>
		<g>
			<g>
				<g>
					<path style="fill:#263238;" d="M433.943,271.063c0,0.009-0.092,0.014-0.269,0.014c-0.207-0.003-0.466-0.006-0.787-0.011
						c-0.731-0.022-1.742-0.053-3.023-0.091c-2.666-0.104-6.453-0.251-11.114-0.433c-4.704-0.202-10.286-0.443-16.48-0.709
						c-3.102-0.139-6.357-0.285-9.731-0.436c-1.688-0.122-3.404-0.035-5.146-0.029c-1.746,0.004-3.516,0.009-5.309,0.013
						c-14.345-0.046-27.315-0.638-36.698-1.05c-4.66-0.225-8.446-0.407-11.111-0.536c-1.28-0.071-2.289-0.127-3.02-0.168
						c-0.32-0.023-0.578-0.042-0.785-0.057c-0.177-0.016-0.267-0.028-0.267-0.037c0-0.009,0.091-0.014,0.269-0.016
						c0.207,0.001,0.466,0.003,0.787,0.005c0.731,0.017,1.742,0.041,3.024,0.07c2.667,0.089,6.454,0.215,11.118,0.37
						c9.387,0.318,22.355,0.851,36.685,0.897c1.791-0.004,3.56-0.007,5.304-0.011c1.747-0.004,3.471-0.089,5.157,0.037
						c3.375,0.162,6.63,0.318,9.734,0.467c6.195,0.309,11.777,0.586,16.482,0.821c4.66,0.251,8.445,0.455,11.11,0.598
						c1.28,0.08,2.289,0.143,3.019,0.189c0.32,0.025,0.578,0.046,0.785,0.062C433.853,271.041,433.944,271.054,433.943,271.063z"/>
				</g>
			</g>
		</g>
		<g>
			<g>
				<g>
					<g>
						<path style="fill:#E8505B;" d="M594.322,391.15H73.061v-25.655c0-24.332,19.725-44.057,44.057-44.057h477.204V391.15z"/>
					</g>
				</g>
				<g style="opacity:0.4;">
					<g>
						<g>
							<path d="M594.322,391.15H73.061v-25.655c0-24.332,19.725-44.057,44.057-44.057h477.204V391.15z"/>
						</g>
					</g>
				</g>
			</g>
			<g>
				<g>
					<path style="fill:#E8505B;" d="M28.507,388.746c0,0,18.531,20.247,52.506,16.129c0,0-13.599-75.461,57.654-79.617
						c0,0,32.659-2.853,49.483,23.957c4.909,7.822,7.407,16.913,7.651,26.145c0.281,10.601,0.606,28.503-0.241,33.022
						c0,0,235.477-9.794,276.696-5.101c0,0-18.761-58.389,32.931-77.126c8.824-3.198,18.994-3.543,28.288-2.237
						c12.679,1.782,26.256,7.578,35.05,21.005c3.775,5.763,8.436,14.138,9.751,20.901c2.252,11.581,0.728,22.506,0,28.182
						l19.489-1.887l14.063-46.585l-2.041-27.751L595.3,290.44l-34.281,4.081c0,0-63.461-17.957-100.802-25.507
						c-37.342-7.55-96.313-8.978-110.597-6.53c-14.284,2.449-19.719,5.101-26.796,8.162c-7.077,3.061-72.374,34.281-72.374,34.281
						l-99.782,0.816c0,0-68.154-1.428-111.209,49.789l5.714,23.058L28.507,388.746z"/>
				</g>
			</g>
			<g>
				<g>
					<path style="fill:#455A64;" d="M250.45,304.927c0,0,61.488,2.619,77.671,2.031c16.183-0.588,103.719-10.886,103.719-10.886
						l1.257-25.138c0,0-29.033-1.92-48.09-1.92c-15.859,0-54.802-1.48-54.802-1.48c-1.249,0.521-2.608,1.051-3.876,1.591
						C303.702,278.77,278.277,291.492,250.45,304.927z"/>
				</g>
			</g>
			<g>
				<g>
					<path style="fill:#EBEBEB;" d="M54.021,340.842c0,0,9.108,1.46,20.501-3.647c11.392-5.107,43.802-22.588,43.802-22.588
						l-2.141-4.433c0,0-5.818,1.171-12.502,3.285c-7.185,2.273-15.38,5.741-21.078,8.669c-4.728,2.429-10.591,5.59-15.545,8.89
						C59.588,335.992,54.021,340.842,54.021,340.842z"/>
				</g>
			</g>
			<g>
				<g>
					<g>
						<path style="fill:#263238;" d="M71.605,355.38c0.004,0.144-6.348,0.445-14.187,0.672c-7.841,0.227-14.2,0.295-14.204,0.151
							s6.347-0.444,14.189-0.672C65.241,355.304,71.601,355.236,71.605,355.38z"/>
					</g>
				</g>
			</g>
			<g style="opacity:0.4;">
				<g>
					<path style="fill:#FFFFFF;" d="M45.173,378.591l22.326,10.38c0,0-21.896,4.339-38.991-0.225L45.173,378.591z"/>
				</g>
			</g>
			<g>
				<g>
					<path style="fill:#EBEBEB;" d="M83.572,349.984c0,0-7.182,10.516-8.208,18.895c-1.026,8.379-1.197,18.895-1.197,18.895h3.249
						c0,0-2.698-25.553,10.773-37.79H83.572z"/>
				</g>
			</g>
			<g style="opacity:0.3;">
				<g>
					<polygon points="197.239,330.265 189.436,322.853 255.563,320.512 209.723,326.364 					"/>
				</g>
			</g>
			<g>
				<g>
					<g>
						<path style="fill:#263238;" d="M202.312,389.427c-0.009,0-0.021-0.098-0.035-0.291c-0.013-0.222-0.029-0.503-0.049-0.854
							c-0.047-0.751-0.063-1.86-0.16-3.284c-0.153-2.849-0.453-6.975-1.24-12.012c-0.782-5.03-2.187-10.98-4.805-17.182
							c-2.664-6.162-6.658-12.542-12.219-17.973c-5.495-5.492-11.881-9.477-18.041-12.147c-0.384-0.171-0.766-0.341-1.145-0.51
							c-0.388-0.147-0.774-0.293-1.157-0.439c-0.767-0.289-1.523-0.574-2.269-0.856c-1.529-0.45-2.983-0.993-4.443-1.327
							c-1.45-0.369-2.85-0.73-4.223-0.957c-0.683-0.128-1.352-0.254-2.007-0.378c-0.66-0.087-1.307-0.172-1.938-0.254
							c-5.055-0.637-9.198-0.585-12.042-0.418c-1.425,0.06-2.523,0.225-3.273,0.273c-0.351,0.028-0.632,0.051-0.853,0.069
							c-0.193,0.013-0.292,0.015-0.293,0.006c-0.001-0.009,0.096-0.029,0.286-0.059c0.22-0.031,0.499-0.071,0.847-0.12
							c0.747-0.082,1.844-0.279,3.272-0.371c2.848-0.23,7.011-0.339,12.101,0.254c0.636,0.078,1.287,0.158,1.952,0.239
							c0.66,0.119,1.334,0.24,2.022,0.364c1.383,0.218,2.794,0.572,4.257,0.934c1.472,0.328,2.94,0.866,4.482,1.312
							c0.753,0.28,1.516,0.564,2.29,0.851c0.387,0.145,0.776,0.29,1.168,0.437c0.383,0.169,0.768,0.338,1.156,0.509
							c6.218,2.667,12.671,6.674,18.217,12.218c5.611,5.479,9.634,11.932,12.294,18.154c2.615,6.262,3.989,12.257,4.728,17.314
							c0.744,5.064,0.988,9.203,1.079,12.059c0.066,1.428,0.049,2.539,0.063,3.291c-0.001,0.352-0.002,0.634-0.003,0.856
							C202.327,389.328,202.321,389.427,202.312,389.427z"/>
					</g>
				</g>
			</g>
			<g style="opacity:0.4;">
				<g>
					<polygon style="fill:#FFFFFF;" points="213.422,385.859 252.971,368.951 446.986,372.677 					"/>
				</g>
			</g>
			<g>
				<g>
					<polygon style="fill:#263238;" points="250.596,369.966 195.96,329.051 209.723,326.364 266.19,369.205 					"/>
				</g>
			</g>
			<g>
				<g>
					<g>
						<path style="fill:#263238;" d="M268.044,405.674c-0.011,0.002-0.051-0.128-0.119-0.384c-0.073-0.289-0.168-0.664-0.286-1.135
							c-0.247-1.038-0.594-2.497-1.033-4.342c-0.874-3.798-2.114-9.183-3.615-15.703l-0.012-0.054l0.017-0.055
							c1.368-4.517,2.916-9.625,4.581-15.123l-0.008,0.109c-0.645-4.594-1.342-9.561-2.063-14.701
							c-0.958-7.23-1.894-14.111-2.447-20.418c-0.029-0.396-0.058-0.789-0.087-1.179c0.001-0.405-0.009-0.808,0.052-1.198
							c0.08-0.788,0.279-1.535,0.486-2.264c0.445-1.448,1.022-2.795,1.625-4.07c1.225-2.543,2.557-4.806,3.82-6.837
							c2.543-4.054,4.824-7.183,6.422-9.326c0.802-1.069,1.44-1.888,1.88-2.437c0.207-0.253,0.374-0.456,0.508-0.619
							c0.117-0.137,0.181-0.204,0.188-0.199c0.007,0.005-0.043,0.084-0.146,0.231c-0.123,0.171-0.276,0.385-0.467,0.65
							c-0.434,0.602-1.036,1.436-1.799,2.493c-1.545,2.176-3.777,5.334-6.272,9.399c-1.238,2.036-2.546,4.301-3.743,6.829
							c-0.589,1.266-1.15,2.601-1.577,4.017c-0.435,1.434-0.64,2.888-0.411,4.472c0.577,6.276,1.527,13.163,2.485,20.387
							c0.714,5.139,1.403,10.105,2.041,14.699l0.008,0.056l-0.016,0.053c-1.692,5.491-3.264,10.59-4.654,15.101l0.004-0.108
							c1.427,6.537,2.606,11.935,3.437,15.742c0.391,1.857,0.701,3.324,0.921,4.368c0.094,0.477,0.168,0.856,0.226,1.149
							C268.036,405.536,268.055,405.671,268.044,405.674z"/>
					</g>
				</g>
			</g>
			<g>
				<g>
					<path style="fill:#263238;" d="M269.47,305.678l76.377-37.348l19.8,0.684c0,0-49.35,11.755-58.677,37.829L269.47,305.678z"/>
				</g>
			</g>
			<g>
				<g>
					<path style="fill:#263238;" d="M493.668,282.916l-7.513,8.397l-54.315,4.76l1.257-25.138
						C433.096,270.934,485.27,278.791,493.668,282.916z"/>
				</g>
			</g>
			<g>
				<g>
					<g>
						<path style="fill:#455A64;" d="M269.407,394.006c0,0,0.224-0.028,0.663-0.058c0.457-0.027,1.105-0.066,1.95-0.117
							c1.733-0.092,4.256-0.226,7.5-0.398c6.532-0.324,15.953-0.791,27.588-1.367c23.312-1.105,55.49-2.63,91.029-4.315
							c4.441-0.213,8.829-0.423,13.154-0.63c4.303-0.234,8.382-1.692,12.062-3.613c7.337-4.036,13.009-10.046,17.621-16.153
							c4.606-6.159,8.311-12.523,10.919-18.844c2.617-6.316,4.091-12.592,4.495-18.387c0.202-2.897,0.144-5.672-0.106-8.277
							c-0.277-2.604-0.738-5.033-1.304-7.272c-1.203-4.461-2.872-8.113-4.542-10.9c-1.672-2.795-3.324-4.724-4.453-6.01
							c-0.585-0.626-1.056-1.08-1.358-1.4c-0.306-0.316-0.454-0.488-0.454-0.488s0.172,0.146,0.491,0.449
							c0.315,0.307,0.799,0.751,1.398,1.367c1.157,1.267,2.842,3.183,4.55,5.977c1.705,2.785,3.413,6.447,4.65,10.93
							c0.583,2.249,1.06,4.692,1.352,7.313c0.264,2.622,0.335,5.416,0.143,8.336c-0.383,5.839-1.847,12.164-4.463,18.525
							c-2.607,6.367-6.318,12.772-10.934,18.967c-4.629,6.15-10.329,12.215-17.763,16.315c-3.728,1.952-7.884,3.44-12.265,3.681
							c-4.332,0.208-8.728,0.42-13.176,0.634c-35.54,1.625-67.717,3.096-91.03,4.162c-11.638,0.507-21.062,0.917-27.595,1.202
							c-3.246,0.13-5.77,0.231-7.504,0.301c-0.846,0.028-1.495,0.05-1.952,0.065C269.633,394.013,269.407,394.006,269.407,394.006z"
							/>
					</g>
				</g>
			</g>
			<g>
				<g>
					<g>
						<path style="fill:#263238;" d="M490.622,314.082c-0.075,0.008,0.007-1.003-0.531-2.678c-0.512-1.656-1.945-3.949-4.648-5.561
							c-2.645-1.628-6.602-2.408-10.583-1.271c-1.973,0.573-3.925,1.656-5.443,3.295c-1.525,1.62-2.516,3.854-2.532,6.213
							c0.015,2.359,1.006,4.594,2.531,6.215c1.519,1.64,3.471,2.724,5.444,3.296c3.981,1.136,7.939,0.356,10.584-1.272
							c2.703-1.612,4.136-3.904,4.647-5.561C490.629,315.085,490.546,314.074,490.622,314.082c0.018,0,0.021,0.245,0.01,0.715
							c0.007,0.236-0.029,0.525-0.088,0.864c-0.037,0.344-0.127,0.731-0.26,1.159c-0.462,1.712-1.888,4.112-4.65,5.814
							c-2.704,1.718-6.774,2.569-10.908,1.418c-2.049-0.581-4.087-1.697-5.685-3.411c-1.604-1.692-2.664-4.059-2.678-6.562
							c0.015-2.502,1.075-4.868,2.678-6.559c1.598-1.713,3.636-2.829,5.684-3.41c4.133-1.151,8.203-0.3,10.907,1.417
							c2.762,1.702,4.188,4.102,4.65,5.814c0.133,0.429,0.223,0.816,0.261,1.16c0.059,0.34,0.094,0.628,0.088,0.864
							C490.643,313.837,490.64,314.082,490.622,314.082z"/>
					</g>
				</g>
			</g>
			<g>
				<g>
					<g>
						<path style="fill:#263238;" d="M561.962,294.409c0,0.009-0.09,0.018-0.265,0.028c-0.206,0.008-0.462,0.018-0.779,0.03
							c-0.725,0.017-1.726,0.04-2.995,0.069c-2.643,0.049-6.396,0.12-11.015,0.206c-9.301,0.177-22.148,0.459-36.33,0.966
							c-14.187,0.501-27.021,1.169-36.295,1.863c-4.634,0.372-8.388,0.654-10.973,0.933c-1.264,0.117-2.26,0.209-2.982,0.276
							c-0.316,0.024-0.572,0.043-0.777,0.059c-0.176,0.01-0.266,0.011-0.267,0.002c-0.001-0.009,0.087-0.027,0.261-0.055
							c0.204-0.029,0.457-0.065,0.771-0.11c0.72-0.09,1.713-0.215,2.973-0.374c2.581-0.342,6.331-0.68,10.966-1.099
							c9.274-0.789,22.113-1.515,36.306-2.017c14.188-0.507,27.04-0.731,36.344-0.814c4.652-0.043,8.417-0.052,11.019-0.041
							c1.27,0.012,2.271,0.022,2.996,0.029c0.317,0.009,0.573,0.016,0.779,0.022C561.872,294.391,561.962,294.4,561.962,294.409z"/>
					</g>
				</g>
			</g>
			<g>
				<g>
					<polygon style="fill:#EBEBEB;" points="566.666,293.849 599.568,298.495 595.3,290.44 					"/>
				</g>
			</g>
			<g>
				<g>
					<g>
						<path style="fill:#263238;" d="M592.277,297.022c0.016,0.008-0.045,0.18-0.178,0.5c-0.161,0.373-0.361,0.833-0.603,1.393
							c-0.529,1.208-1.343,2.933-2.393,5.043c-2.096,4.222-5.221,9.948-9.101,16.009c-3.889,6.059-7.788,11.289-10.749,14.956
							c-1.479,1.835-2.707,3.295-3.583,4.279c-0.408,0.454-0.742,0.827-1.014,1.129c-0.236,0.254-0.367,0.382-0.38,0.371
							c-0.014-0.012,0.09-0.162,0.3-0.439c0.251-0.319,0.561-0.712,0.938-1.191c0.828-1.023,2.01-2.517,3.449-4.377
							c2.882-3.719,6.722-8.967,10.6-15.009c3.87-6.044,7.036-11.724,9.212-15.895c1.09-2.085,1.953-3.783,2.538-4.962
							c0.278-0.543,0.506-0.989,0.691-1.35C592.167,297.171,592.261,297.014,592.277,297.022z"/>
					</g>
				</g>
			</g>
			<g>
				<g>
					<g>
						<path style="fill:#263238;" d="M585.777,386.358c-0.009-0.001-0.014-0.11-0.016-0.323c0.002-0.241,0.004-0.552,0.007-0.944
							c0.032-0.829,0.014-2.05-0.034-3.623c-0.114-3.141-0.6-7.689-1.956-13.146c-1.365-5.452-3.663-11.775-6.943-18.448
							c-1.646-3.331-3.457-6.799-5.685-10.165c-2.223-3.358-4.915-6.617-8.297-9.222c-3.387-2.603-7.201-4.419-10.99-5.786
							c-3.802-1.358-7.601-2.297-11.245-3.001c-7.304-1.366-14.043-1.615-19.649-1.267c-5.619,0.293-10.107,1.165-13.178,1.826
							c-0.762,0.174-1.443,0.33-2.039,0.467c-0.577,0.151-1.071,0.28-1.483,0.388c-0.38,0.095-0.682,0.17-0.915,0.228
							c-0.207,0.049-0.315,0.069-0.317,0.061c-0.003-0.009,0.1-0.046,0.302-0.112c0.23-0.071,0.528-0.163,0.902-0.278
							c0.409-0.121,0.9-0.267,1.473-0.436c0.594-0.15,1.272-0.322,2.032-0.514c3.065-0.723,7.56-1.654,13.202-1.996
							c5.629-0.396,12.407-0.185,19.76,1.163c3.669,0.695,7.49,1.63,11.328,2.993c3.826,1.373,7.691,3.206,11.136,5.854
							c3.443,2.653,6.167,5.962,8.404,9.353c2.243,3.402,4.05,6.887,5.691,10.236c3.27,6.711,5.544,13.079,6.869,18.57
							c1.317,5.497,1.749,10.074,1.801,13.228c0.017,1.579,0.002,2.803-0.064,3.633c-0.024,0.391-0.044,0.702-0.058,0.943
							C585.798,386.25,585.786,386.358,585.777,386.358z"/>
					</g>
				</g>
			</g>
			<g>
				<g>
					<g>
						<path style="fill:#263238;" d="M611.856,340.46c0.01,0.035-0.461,0.195-1.321,0.455c-0.859,0.264-2.114,0.605-3.674,0.99
							c-3.119,0.772-7.479,1.659-12.347,2.279c-4.871,0.615-9.314,0.845-12.527,0.876c-1.607,0.017-2.907,0-3.805-0.041
							c-0.898-0.037-1.393-0.074-1.393-0.11c0.001-0.036,0.497-0.067,1.394-0.092c0.996-0.033,2.27-0.074,3.794-0.125
							c3.202-0.125,7.621-0.413,12.471-1.025c4.848-0.618,9.198-1.443,12.33-2.121c1.489-0.332,2.733-0.61,3.706-0.827
							C611.358,340.519,611.846,340.425,611.856,340.46z"/>
					</g>
				</g>
			</g>
			<g>
				<g>
					<g>
						<path style="fill:#263238;" d="M234.755,341.618c0,0,0.215-0.034,0.637-0.075c0.44-0.039,1.063-0.095,1.873-0.168
							c1.666-0.138,4.091-0.338,7.205-0.595c6.277-0.492,15.33-1.202,26.508-2.078c22.386-1.712,53.317-4.027,87.511-6.123
							c17.102-1.051,33.401-1.931,48.231-2.62c14.826-0.714,28.22-0.972,39.439-0.283c11.223,0.625,20.222,2.149,26.344,3.539
							c3.052,0.744,5.417,1.338,6.994,1.84c0.779,0.233,1.378,0.413,1.801,0.54c0.405,0.124,0.608,0.201,0.608,0.201
							s-0.214-0.042-0.624-0.15c-0.427-0.115-1.03-0.278-1.815-0.49c-1.584-0.469-3.955-1.031-7.009-1.743
							c-6.127-1.327-15.115-2.792-26.321-3.369c-11.203-0.641-24.575-0.345-39.396,0.395c-14.826,0.715-31.122,1.61-48.222,2.66
							c-34.189,2.096-65.122,4.352-87.515,5.97c-11.184,0.807-20.24,1.46-26.52,1.913c-3.118,0.215-5.545,0.383-7.213,0.498
							c-0.812,0.05-1.436,0.089-1.877,0.116C234.972,341.619,234.755,341.618,234.755,341.618z"/>
					</g>
				</g>
			</g>
			<g>
				<g>
					<g>
						<g>
							<g>
								<g>
									<g>
										<g>
											<g>
												<g>
													
														<ellipse transform="matrix(0.9999 -0.0141 0.0141 0.9999 -5.2856 7.4273)" style="fill:#263238;" cx="524.136" cy="378.595" rx="49.272" ry="49.272"/>
												</g>
											</g>
										</g>
									</g>
								</g>
							</g>
						</g>
					</g>
				</g>
				<g>
					<g>
						<g>
							<g>
								<g>
									<g>
										<g>
											<g>
												<g>
													<path style="fill:#263238;" d="M474.878,377.758c-0.001,0.043-0.008,0.084-0.009,0.127
														c-0.392,27.209,21.347,49.585,48.556,49.977c27.21,0.393,49.585-21.347,49.978-48.556
														c0.001-0.043-0.005-0.084-0.005-0.127L474.878,377.758z"/>
												</g>
											</g>
										</g>
									</g>
								</g>
							</g>
						</g>
					</g>
				</g>
				<g>
					<g>
						<g>
							<g>
								<g>
									<g>
										<g>
											<g>
												<g>
													<path style="fill:#FAFAFA;" d="M489.548,378.096c-0.276,19.103,14.986,34.812,34.089,35.088
														c19.103,0.276,34.813-14.987,35.088-34.09c0.276-19.103-14.987-34.812-34.09-35.088
														C505.532,343.731,489.824,358.993,489.548,378.096z"/>
												</g>
											</g>
										</g>
									</g>
								</g>
							</g>
						</g>
					</g>
				</g>
				<g>
					<g>
						<g>
							<g>
								<g>
									<g>
										<g>
											<g>
												<g>
													<path style="fill:#E0E0E0;" d="M524.635,344.006c-19.103-0.276-34.811,14.987-35.087,34.09l69.177,0.998
														C559.001,359.991,543.738,344.282,524.635,344.006z"/>
												</g>
											</g>
										</g>
									</g>
								</g>
							</g>
						</g>
					</g>
				</g>
				<g>
					<g>
						<g>
							<g>
								<g>
									<g>
										<g>
											<g>
												<g>
													<path style="fill:#263238;" d="M503.067,378.291c-0.168,11.637,9.129,21.206,20.765,21.374
														c11.637,0.168,21.207-9.129,21.374-20.766c0.168-11.637-9.13-21.206-20.766-21.374
														C512.804,357.357,503.235,366.654,503.067,378.291z"/>
												</g>
											</g>
										</g>
									</g>
								</g>
							</g>
						</g>
					</g>
				</g>
			</g>
			<g>
				<g>
					<g>
						<g>
							<g>
								<g>
									<g>
										<g>
											<g>
												<g>
													
														<ellipse transform="matrix(1 -0.0066 0.0066 1 -2.4808 0.9188)" style="fill:#263238;" cx="138.812" cy="378.595" rx="49.272" ry="49.272"/>
												</g>
											</g>
										</g>
									</g>
								</g>
							</g>
						</g>
					</g>
				</g>
				<g>
					<g>
						<g>
							<g>
								<g>
									<g>
										<g>
											<g>
												<g>
													<path style="fill:#263238;" d="M89.554,377.758c-0.001,0.043-0.008,0.084-0.009,0.127
														c-0.392,27.209,21.347,49.585,48.556,49.977c27.21,0.393,49.585-21.347,49.978-48.556
														c0.001-0.043-0.005-0.084-0.005-0.127L89.554,377.758z"/>
												</g>
											</g>
										</g>
									</g>
								</g>
							</g>
						</g>
					</g>
				</g>
				<g>
					<g>
						<g>
							<g>
								<g>
									<g>
										<g>
											<g>
												<g>
													<path style="fill:#FAFAFA;" d="M104.224,378.096c-0.275,19.103,14.987,34.812,34.089,35.088
														c19.103,0.276,34.813-14.987,35.088-34.09c0.275-19.103-14.987-34.812-34.09-35.088
														C120.208,343.731,104.5,358.993,104.224,378.096z"/>
												</g>
											</g>
										</g>
									</g>
								</g>
							</g>
						</g>
					</g>
				</g>
				<g>
					<g>
						<g>
							<g>
								<g>
									<g>
										<g>
											<g>
												<g>
													<path style="fill:#E0E0E0;" d="M139.311,344.006c-19.103-0.276-34.811,14.987-35.087,34.09l69.177,0.998
														C173.677,359.991,158.414,344.282,139.311,344.006z"/>
												</g>
											</g>
										</g>
									</g>
								</g>
							</g>
						</g>
					</g>
				</g>
				<g>
					<g>
						<g>
							<g>
								<g>
									<g>
										<g>
											<g>
												<g>
													<path style="fill:#263238;" d="M117.743,378.291c-0.168,11.637,9.129,21.206,20.765,21.374
														c11.637,0.168,21.207-9.129,21.374-20.766c0.168-11.637-9.13-21.206-20.766-21.374
														C127.48,357.357,117.911,366.654,117.743,378.291z"/>
												</g>
											</g>
										</g>
									</g>
								</g>
							</g>
						</g>
					</g>
				</g>
			</g>
			<g>
				<g>
					<g>
						<path style="fill:#263238;" d="M462.754,293.363c0.011-0.047-0.73-0.026-2.126,0.082c-1.397,0.106-3.457,0.288-6.108,0.539
							c-5.302,0.502-12.97,1.28-22.441,2.276c-9.474,1.026-20.746,2.247-33.26,3.602c-6.256,0.713-12.822,1.461-19.628,2.236
							c-3.399,0.416-6.858,0.84-10.369,1.27c-3.497,0.484-7.071,0.963-10.685,1.321c-7.234,0.75-14.311,1.304-21.149,1.792
							c-3.42,0.224-6.779,0.444-10.07,0.659c-0.825,0.046-1.646,0.092-2.463,0.138c-0.816,0.001-1.628,0.002-2.436,0.003
							c-1.614-0.001-3.209-0.002-4.784-0.002c-12.596-0.017-23.94-0.255-33.458-0.65c-9.519-0.39-17.212-0.88-22.526-1.237
							c-2.64-0.19-4.697-0.339-6.117-0.441c-0.683-0.056-1.211-0.1-1.59-0.13c-0.358-0.032-0.54-0.062-0.54-0.062
							s0.185-0.006,0.544,0.009c0.379,0.019,0.909,0.045,1.593,0.079c1.421,0.08,3.481,0.195,6.123,0.343
							c5.317,0.294,13.012,0.729,22.527,1.071c9.516,0.348,20.853,0.547,33.445,0.538c1.573-0.002,3.166-0.005,4.777-0.007
							c0.805-0.002,1.615-0.005,2.429-0.007c0.811-0.047,1.627-0.094,2.447-0.142c3.288-0.22,6.646-0.444,10.064-0.672
							c6.833-0.495,13.906-1.052,21.13-1.801c3.616-0.359,7.16-0.833,10.672-1.317c3.511-0.455,6.974-0.864,10.377-1.263
							c6.809-0.765,13.377-1.503,19.634-2.207c12.518-1.366,23.798-2.541,33.275-3.491c9.477-0.95,17.152-1.671,22.461-2.112
							C459.805,293.341,462.77,293.187,462.754,293.363z"/>
					</g>
				</g>
			</g>
			<g>
				<g>
					<g>
						<path style="fill:#E8505B;" d="M304.242,312.408c0,0,8.19-15.835,14.015-18.565c0,0,15.471-1.638,17.837-1.092
							c2.366,0.546,3.094,4.186,3.094,6.552c0,2.366,0.364,6.552-1.456,8.008c-1.82,1.456-0.364,1.274-3.822,2.184
							c-3.458,0.91-10.921-0.546-10.921-0.546l0.182,6.734c0,0-8.19,4.186-13.469,2.912
							C304.424,317.322,304.242,312.408,304.242,312.408z"/>
					</g>
				</g>
				<g>
					<g>
						<g>
							<path style="fill:#263238;" d="M323.246,315.689c-0.013,0-0.031-0.154-0.052-0.452c-0.019-0.341-0.043-0.775-0.073-1.316
								c-0.049-1.203-0.117-2.874-0.202-4.962l-0.007-0.177l0.18,0.031c1.751,0.303,3.834,0.6,6.18,0.737
								c1.171,0.059,2.417,0.085,3.688-0.078c0.63-0.073,1.26-0.253,1.917-0.442c0.634-0.215,1.363-0.321,1.716-0.84
								c0.22-0.28,0.489-0.558,0.766-0.801c0.291-0.256,0.548-0.438,0.733-0.729c0.396-0.551,0.614-1.254,0.743-1.977
								c0.258-1.459,0.215-3.016,0.184-4.613c0.019-1.596-0.114-3.213-0.701-4.733c-0.299-0.741-0.712-1.47-1.347-1.922
								c-0.612-0.503-1.455-0.477-2.309-0.507c-2.905,0.011-5.757,0.254-8.486,0.461c-2.731,0.224-5.351,0.467-7.819,0.716
								l0.076-0.021c-1.515,0.733-2.693,1.961-3.778,3.087c-1.084,1.149-2.002,2.352-2.857,3.487
								c-1.694,2.286-3.04,4.398-4.131,6.154c-1.087,1.76-1.908,3.175-2.469,4.143c-0.263,0.454-0.475,0.82-0.641,1.108
								c-0.148,0.25-0.228,0.378-0.24,0.371c-0.011-0.006,0.046-0.146,0.172-0.408c0.15-0.297,0.34-0.675,0.577-1.145
								c0.519-0.993,1.303-2.432,2.357-4.218c1.058-1.783,2.377-3.92,4.056-6.241c0.849-1.152,1.761-2.373,2.853-3.55
								c1.1-1.155,2.27-2.413,3.9-3.219l0.034-0.017l0.042-0.004c2.472-0.264,5.092-0.519,7.827-0.751
								c2.738-0.216,5.581-0.464,8.533-0.475c0.443,0.021,0.868,0.006,1.329,0.085c0.454,0.049,0.912,0.249,1.28,0.522
								c0.76,0.55,1.202,1.361,1.523,2.154c0.622,1.608,0.748,3.324,0.725,4.914c0.024,1.595,0.066,3.178-0.212,4.709
								c-0.142,0.76-0.372,1.522-0.838,2.166c-0.213,0.332-0.562,0.586-0.81,0.802c-0.266,0.232-0.498,0.467-0.719,0.742
								c-2.549,1.726-5.361,1.564-7.697,1.453c-2.37-0.167-4.452-0.497-6.212-0.837l0.172-0.146c0.028,2.09,0.05,3.762,0.066,4.966
								c-0.001,0.541-0.001,0.977-0.002,1.318C323.269,315.533,323.26,315.688,323.246,315.689z"/>
						</g>
					</g>
				</g>
			</g>
			<g>
				<g>
					<g>
						<path style="fill:#455A64;" d="M218.044,334.675c0,0.144-2.678,0.26-5.981,0.26c-3.304,0-5.981-0.117-5.981-0.26
							c0-0.144,2.677-0.26,5.981-0.26C215.366,334.414,218.044,334.531,218.044,334.675z"/>
					</g>
				</g>
			</g>
			<g>
				<g>
					<g>
						<path style="fill:#455A64;" d="M226.597,340.952c0,0.144-2.678,0.26-5.981,0.26c-3.304,0-5.981-0.117-5.981-0.26
							s2.677-0.26,5.981-0.26C223.919,340.692,226.597,340.809,226.597,340.952z"/>
					</g>
				</g>
			</g>
			<g>
				<g>
					<g>
						<path style="fill:#455A64;" d="M235.149,347.23c0,0.144-2.678,0.26-5.981,0.26c-3.304,0-5.981-0.117-5.981-0.26
							s2.677-0.26,5.981-0.26C232.471,346.97,235.149,347.086,235.149,347.23z"/>
					</g>
				</g>
			</g>
			<g>
				<g>
					<g>
						<path style="fill:#455A64;" d="M243.702,353.508c0,0.144-2.678,0.26-5.981,0.26c-3.304,0-5.981-0.117-5.981-0.26
							s2.677-0.26,5.981-0.26C241.024,353.247,243.702,353.364,243.702,353.508z"/>
					</g>
				</g>
			</g>
			<g>
				<g>
					<g>
						<path style="fill:#455A64;" d="M252.255,359.785c0,0.144-2.678,0.26-5.981,0.26c-3.304,0-5.981-0.117-5.981-0.26
							s2.677-0.26,5.981-0.26C249.577,359.525,252.255,359.641,252.255,359.785z"/>
					</g>
				</g>
			</g>
			<g>
				<g>
					<g>
						<path style="fill:#455A64;" d="M260.807,366.063c0,0.144-2.678,0.26-5.981,0.26c-3.304,0-5.981-0.117-5.981-0.26
							c0-0.144,2.677-0.26,5.981-0.26C258.129,365.802,260.807,365.919,260.807,366.063z"/>
					</g>
				</g>
			</g>
			<g>
				<g>
					<g>
						<path style="fill:#FFFFFF;" d="M333.998,294.939c0,0.144-3.301,0.26-7.371,0.26c-4.072,0-7.372-0.117-7.372-0.26
							s3.3-0.26,7.372-0.26C330.697,294.678,333.998,294.795,333.998,294.939z"/>
					</g>
				</g>
			</g>
			<g>
				<g>
					<g>
						<path style="fill:#FFFFFF;" d="M159.145,320.444c-0.01,0.035-0.545-0.07-1.502-0.29c-0.954-0.229-2.347-0.517-4.073-0.822
							c-1.725-0.313-3.795-0.588-6.102-0.796c-2.309-0.183-4.855-0.284-7.527-0.222c-2.672,0.08-5.21,0.316-7.506,0.62
							c-2.293,0.329-4.346,0.714-6.052,1.117c-1.707,0.396-3.082,0.757-4.023,1.036c-0.944,0.27-1.473,0.403-1.485,0.369
							c-0.012-0.034,0.495-0.232,1.424-0.562c0.925-0.34,2.291-0.756,3.997-1.2c1.705-0.452,3.765-0.877,6.071-1.235
							c2.309-0.333,4.867-0.585,7.561-0.666c2.693-0.062,5.26,0.055,7.583,0.265c2.321,0.236,4.401,0.55,6.127,0.912
							c1.727,0.353,3.113,0.697,4.055,0.987C158.638,320.239,159.155,320.41,159.145,320.444z"/>
					</g>
				</g>
			</g>
			<g>
				<g>
					<g>
						<path style="fill:#FFFFFF;" d="M446.986,372.677c0.008,0.144-52.179,3.145-116.548,6.704
							c-64.391,3.56-116.58,6.328-116.588,6.184c-0.008-0.143,52.168-3.145,116.559-6.704
							C394.779,375.302,446.978,372.533,446.986,372.677z"/>
					</g>
				</g>
			</g>
			<g>
				<g>
					<g>
						<path style="fill:#FFFFFF;" d="M547.338,320.011c-0.012,0.034-0.606-0.124-1.668-0.437c-0.529-0.162-1.178-0.354-1.942-0.542
							c-0.762-0.193-1.62-0.445-2.589-0.644c-1.923-0.457-4.24-0.88-6.827-1.228c-2.591-0.318-5.456-0.544-8.469-0.575
							c-3.014-0.008-5.882,0.181-8.478,0.466c-2.592,0.316-4.914,0.709-6.843,1.141c-0.972,0.186-1.833,0.427-2.597,0.61
							c-0.766,0.178-1.417,0.362-1.948,0.517c-1.066,0.299-1.661,0.449-1.673,0.415c-0.011-0.034,0.563-0.249,1.614-0.609
							c0.524-0.185,1.169-0.398,1.931-0.604c0.76-0.211,1.62-0.478,2.591-0.688c1.929-0.481,4.26-0.914,6.868-1.258
							c2.611-0.313,5.501-0.519,8.539-0.511c3.036,0.031,5.923,0.274,8.529,0.62c2.603,0.377,4.928,0.841,6.85,1.346
							c0.969,0.222,1.825,0.501,2.582,0.722c0.759,0.216,1.402,0.436,1.924,0.629C546.778,319.755,547.35,319.978,547.338,320.011z"
							/>
					</g>
				</g>
			</g>
			<g>
				<g>
					<g>
						<path style="fill:#FFFFFF;" d="M474.807,303.066c0.01,0.087-0.738,0.193-1.878,0.565c-1.139,0.367-2.656,1.067-4.091,2.195
							c-1.429,1.135-2.461,2.449-3.083,3.472c-0.626,1.023-0.902,1.726-0.985,1.696c-0.053-0.016,0.101-0.772,0.664-1.877
							c0.557-1.102,1.589-2.517,3.08-3.699c1.495-1.176,3.11-1.854,4.311-2.14C474.032,302.986,474.804,303.011,474.807,303.066z"/>
					</g>
				</g>
			</g>
			<g>
				<g>
					<g>
						<path style="fill:#FFFFFF;" d="M515.66,293.527c0.009,0.067-1.159,0.299-3.065,0.551c-1.906,0.253-4.552,0.512-7.484,0.642
							c-2.933,0.129-5.592,0.104-7.513,0.02c-1.921-0.083-3.104-0.211-3.101-0.279c0.003-0.076,1.191-0.079,3.108-0.089
							c1.917-0.01,4.563-0.044,7.483-0.172c2.919-0.13,5.558-0.329,7.468-0.488C514.466,293.554,515.65,293.452,515.66,293.527z"/>
					</g>
				</g>
			</g>
			<g>
				<g>
					<g>
						<path style="fill:#FFFFFF;" d="M405.905,302.302c0.021,0.142-9.824,1.683-21.987,3.44
							c-12.166,1.758-22.043,3.067-22.063,2.925c-0.021-0.142,9.822-1.682,21.989-3.44
							C396.006,303.469,405.884,302.159,405.905,302.302z"/>
					</g>
				</g>
			</g>
			<g>
				<g>
					<g>
						<path style="fill:#FFFFFF;" d="M395.87,280.458c0.057,0.132-4.631,2.289-10.47,4.818c-5.841,2.529-10.621,4.472-10.678,4.34
							c-0.057-0.132,4.63-2.289,10.472-4.818C391.032,282.27,395.813,280.327,395.87,280.458z"/>
					</g>
				</g>
			</g>
			<g>
				<g>
					<g>
						<path style="fill:#FFFFFF;" d="M390.293,277.712c0.016,0.032-0.462,0.314-1.341,0.796c-0.878,0.484-2.162,1.159-3.76,1.971
							c-3.195,1.625-7.659,3.774-12.668,5.971c-5.012,2.196-9.618,4.023-12.978,5.271c-1.68,0.625-3.046,1.112-3.997,1.43
							c-0.95,0.319-1.481,0.48-1.494,0.446c-0.012-0.034,0.495-0.259,1.423-0.636c1.016-0.409,2.34-0.941,3.934-1.583
							c3.322-1.335,7.898-3.212,12.902-5.404c5.001-2.194,9.482-4.286,12.715-5.825c1.553-0.738,2.842-1.351,3.831-1.821
							C389.767,277.901,390.276,277.68,390.293,277.712z"/>
					</g>
				</g>
			</g>
		</g>
		<g>
			<g>
				<g>
					<g>
						<path style="fill:#455A64;" d="M566.904,365.33c-0.158,0.045-0.906-2.944-2.728-6.228c-1.796-3.3-3.917-5.533-3.795-5.643
							c0.046-0.045,0.637,0.455,1.464,1.392c0.827,0.934,1.866,2.326,2.787,4c0.918,1.675,1.536,3.298,1.881,4.497
							C566.861,364.548,566.967,365.315,566.904,365.33z"/>
					</g>
				</g>
			</g>
			<g>
				<g>
					<g>
						<path style="fill:#455A64;" d="M566.349,376.208c-0.084,0-0.118-0.998-0.315-2.589c-0.194-1.59-0.602-3.771-1.376-6.085
							c-0.781-2.313-1.775-4.297-2.581-5.681c-0.804-1.386-1.38-2.202-1.313-2.253c0.047-0.037,0.73,0.703,1.627,2.059
							c0.897,1.352,1.965,3.351,2.761,5.708c0.79,2.359,1.147,4.596,1.249,6.215C566.506,375.206,566.409,376.209,566.349,376.208z"
							/>
					</g>
				</g>
			</g>
			<g>
				<g>
					<g>
						<path style="fill:#455A64;" d="M490.857,398.604c-0.049,0.039-0.694-0.658-1.569-1.917c-0.875-1.256-1.948-3.097-2.839-5.265
							c-0.886-2.17-1.414-4.235-1.671-5.744c-0.26-1.511-0.289-2.46-0.227-2.466c0.167-0.029,0.609,3.74,2.38,8.013
							C488.667,395.511,490.996,398.508,490.857,398.604z"/>
					</g>
				</g>
			</g>
			<g>
				<g>
					<g>
						<path style="fill:#455A64;" d="M492.39,406.787c-0.025,0.026-0.262-0.169-0.671-0.544c-0.411-0.372-0.975-0.943-1.643-1.676
							c-1.337-1.463-3.042-3.627-4.599-6.229c-1.553-2.606-2.649-5.134-3.303-7.005c-0.328-0.935-0.564-1.703-0.696-2.241
							c-0.137-0.537-0.196-0.838-0.161-0.848c0.079-0.024,0.463,1.136,1.201,2.959c0.736,1.823,1.872,4.294,3.406,6.869
							c1.539,2.571,3.175,4.743,4.431,6.255C491.609,405.841,492.449,406.729,492.39,406.787z"/>
					</g>
				</g>
			</g>
		</g>
		<g>
			<g>
				<g>
					<path style="fill:#455A64;" d="M109.066,404.306c-0.05,0.046-0.671-0.512-1.585-1.501c-0.915-0.989-2.111-2.42-3.305-4.095
						c-1.193-1.677-2.153-3.277-2.787-4.465c-0.635-1.188-0.959-1.958-0.899-1.989c0.138-0.073,1.739,2.833,4.111,6.152
						C106.958,401.734,109.18,404.199,109.066,404.306z"/>
				</g>
			</g>
		</g>
		<g>
			<g>
				<g>
					<path style="fill:#455A64;" d="M110.481,409.996c-0.087,0.106-2.269-1.584-4.635-4.021c-2.372-2.432-4-4.659-3.892-4.743
						c0.117-0.095,1.913,1.969,4.266,4.38C108.565,408.029,110.579,409.882,110.481,409.996z"/>
				</g>
			</g>
		</g>
		<g>
			<g>
				<g>
					<path style="fill:#455A64;" d="M178.955,372.57c-0.158,0.022-0.517-2.581-1.648-5.585c-1.11-3.013-2.541-5.216-2.407-5.303
						c0.098-0.082,1.757,2.037,2.895,5.121C178.951,369.879,179.083,372.568,178.955,372.57z"/>
				</g>
			</g>
		</g>
		<g>
			<g>
				<g>
					<path style="fill:#455A64;" d="M181.514,373.522c-0.168,0.024-0.434-3.426-2.028-7.313c-1.558-3.904-3.766-6.567-3.629-6.666
						c0.048-0.04,0.66,0.571,1.483,1.699c0.823,1.125,1.824,2.792,2.628,4.772c0.799,1.981,1.239,3.875,1.43,5.256
						C181.591,372.652,181.576,373.518,181.514,373.522z"/>
				</g>
			</g>
		</g>
		<g>
			<g>
				<g>
					<path style="fill:#455A64;" d="M100.387,416.482c-0.046,0.049-0.659-0.423-1.559-1.288c-0.9-0.864-2.074-2.137-3.228-3.656
						c-1.152-1.521-2.061-2.995-2.651-4.095c-0.591-1.1-0.88-1.818-0.82-1.849c0.14-0.074,1.599,2.63,3.886,5.629
						C98.285,414.232,100.495,416.367,100.387,416.482z"/>
				</g>
			</g>
		</g>
		<g>
			<g>
				<g>
					<path style="fill:#455A64;" d="M103.028,422.536c-0.018,0.031-0.307-0.102-0.815-0.371c-0.511-0.264-1.227-0.691-2.087-1.256
						c-1.722-1.126-3.984-2.881-6.175-5.142c-2.186-2.267-3.863-4.588-4.93-6.347c-0.535-0.879-0.938-1.608-1.184-2.128
						c-0.252-0.517-0.375-0.81-0.343-0.827c0.075-0.04,0.698,1.064,1.837,2.756c1.136,1.693,2.837,3.946,4.995,6.185
						c2.163,2.232,4.357,4.008,6.01,5.202C101.988,421.802,103.071,422.463,103.028,422.536z"/>
				</g>
			</g>
		</g>
		<g>
			<g>
				<g>
					<path style="fill:#263238;" d="M700.701,343.577c0,0.144-14.068,0.26-31.417,0.26c-17.356,0-31.42-0.117-31.42-0.26
						s14.065-0.26,31.42-0.26C686.633,343.316,700.701,343.433,700.701,343.577z"/>
				</g>
			</g>
		</g>
		<g>
			<g>
				<g>
					<path style="fill:#263238;" d="M701.168,338.204c0,0.144-9.989,0.26-22.307,0.26c-12.323,0-22.31-0.117-22.31-0.26
						c0-0.144,9.987-0.26,22.31-0.26C691.179,337.944,701.168,338.06,701.168,338.204z"/>
				</g>
			</g>
		</g>
	</g>
</g>
<g id="Speedometer">
	<g>
		<g>
			<g>
				<g>
					<circle style="fill:#FAFAFA;" cx="560.321" cy="192.623" r="66.566"/>
				</g>
				<g>
					<path style="fill:#263238;" d="M560.321,260.189c-37.256,0-67.566-30.31-67.566-67.566c0-37.256,30.31-67.566,67.566-67.566
						c37.256,0,67.565,30.31,67.565,67.566C627.887,229.879,597.577,260.189,560.321,260.189z M560.321,127.057
						c-36.153,0-65.566,29.413-65.566,65.566s29.413,65.566,65.566,65.566c36.153,0,65.565-29.413,65.565-65.566
						S596.475,127.057,560.321,127.057z"/>
				</g>
			</g>
			<g>
				<g>
					<g>
						<path style="fill:#263238;" d="M561.028,146.404c-0.144,0-0.26-2.856-0.26-6.379c0-3.524,0.117-6.379,0.26-6.379
							c0.144,0,0.26,2.855,0.26,6.379C561.288,143.548,561.171,146.404,561.028,146.404z"/>
					</g>
				</g>
			</g>
			<g>
				<g>
					<g>
						<path style="fill:#263238;" d="M526.607,158.984c-0.104,0.1-1.996-1.69-4.227-3.998c-2.232-2.309-3.956-4.261-3.853-4.361
							c0.103-0.1,1.996,1.69,4.228,3.999C524.985,156.932,526.71,158.885,526.607,158.984z"/>
					</g>
				</g>
			</g>
			<g>
				<g>
					<g>
						<path style="fill:#263238;" d="M517.791,194.011c0,0.144-3.583,0.26-8.002,0.26c-4.421,0-8.003-0.117-8.003-0.26
							c0-0.144,3.582-0.26,8.003-0.26C514.208,193.751,517.791,193.868,517.791,194.011z"/>
					</g>
				</g>
			</g>
			<g>
				<g>
					<g>
						<path style="fill:#263238;" d="M526.454,226.683c0.094,0.096-1.445,1.844-3.391,3.968c-1.947,2.125-3.666,3.725-3.773,3.615
							c-0.094-0.096,1.444-1.843,3.391-3.968C524.626,228.174,526.346,226.573,526.454,226.683z"/>
					</g>
				</g>
			</g>
			<g>
				<g>
					<path style="fill:#E8505B;" d="M602.037,233.589c5.074-5.324,15.319-17.254,16.921-36.365
						c2.08-24.817-8.739-37.849-16.745-46.505l-6.954,6.65c7.124,7.596,18.066,22.693,15.084,40.586
						c-2.401,14.404-9.866,25.25-14.381,29.923L602.037,233.589z"/>
				</g>
			</g>
			<g>
				<g>
					<path style="fill:#263238;" d="M558.681,201.148c-4.222-0.833-6.969-4.931-6.136-9.153c0.833-4.222,4.931-6.969,9.153-6.136
						c4.222,0.833,6.969,4.931,6.136,9.153C567.001,199.233,562.903,201.98,558.681,201.148z"/>
				</g>
			</g>
			<g>
				<g>
					<polygon style="fill:#263238;" points="587.928,211.903 542.75,177.292 538.451,183.842 					"/>
				</g>
			</g>
			<g>
				<g>
					<g>
						<path style="fill:#263238;" d="M619.181,192.066c0,0-0.026-0.323-0.051-0.954c-0.041-0.63-0.02-1.571-0.133-2.797
							c-0.153-2.454-0.567-6.077-1.693-10.612c-1.163-4.513-3.11-9.953-6.52-15.649c-3.404-5.674-8.284-11.61-14.93-16.671
							c-3.309-2.537-7.07-4.813-11.214-6.693c-4.142-1.878-8.667-3.385-13.493-4.253c-4.817-0.887-9.915-1.236-15.122-0.828
							c-2.607,0.155-5.227,0.58-7.858,1.101c-2.625,0.562-5.243,1.315-7.838,2.237c-10.342,3.747-20.169,10.743-27.249,20.444
							c-7.116,9.635-11.384,21.931-11.36,34.665c-0.029,12.739,4.24,25.039,11.356,34.677c7.08,9.704,16.908,16.702,27.252,20.45
							c2.596,0.922,5.214,1.675,7.839,2.238c2.631,0.521,5.252,0.946,7.859,1.101c5.207,0.408,10.306,0.059,15.123-0.829
							c4.826-0.867,9.351-2.376,13.493-4.254c4.144-1.88,7.905-4.157,11.214-6.694c6.646-5.062,11.524-10.998,14.928-16.672
							c3.409-5.696,5.356-11.136,6.518-15.648c1.125-4.535,1.539-8.157,1.692-10.61c0.113-1.226,0.092-2.166,0.133-2.796
							C619.155,192.389,619.181,192.066,619.181,192.066s0.04,1.295-0.079,3.757c-0.12,2.46-0.502,6.095-1.6,10.653
							c-1.136,4.536-3.063,10.009-6.465,15.748c-3.397,5.716-8.282,11.704-14.955,16.816c-3.322,2.563-7.102,4.864-11.27,6.767
							c-4.166,1.901-8.72,3.429-13.581,4.313c-4.851,0.903-9.988,1.263-15.235,0.861c-2.627-0.153-5.27-0.576-7.922-1.099
							c-2.647-0.563-5.288-1.319-7.906-2.246c-10.434-3.766-20.353-10.814-27.5-20.599c-7.184-9.717-11.495-22.129-11.466-34.98
							c-0.025-12.846,4.286-25.254,11.47-34.967c7.146-9.781,17.063-16.827,27.496-20.593c2.618-0.927,5.258-1.683,7.905-2.246
							c2.653-0.522,5.294-0.946,7.922-1.099c5.247-0.403,10.383-0.043,15.234,0.86c4.86,0.883,9.414,2.411,13.58,4.311
							c4.168,1.903,7.948,4.204,11.27,6.766c6.673,5.111,11.559,11.099,14.957,16.815c3.403,5.739,5.33,11.213,6.466,15.749
							c1.099,4.558,1.481,8.194,1.601,10.654C619.22,190.771,619.181,192.066,619.181,192.066z"/>
					</g>
				</g>
			</g>
			<g>
				<g>
					<g>
						<path style="fill:#263238;" d="M619.207,191.692c0,0.144-2.815,0.26-6.288,0.26c-3.474,0-6.288-0.117-6.288-0.26
							c0-0.144,2.815-0.26,6.288-0.26C616.392,191.431,619.207,191.548,619.207,191.692z"/>
					</g>
				</g>
			</g>
			<g>
				<g>
					<g>
						<path style="fill:#263238;" d="M602.04,233.592c-0.1,0.104-2.32-1.87-4.958-4.408c-2.639-2.538-4.697-4.68-4.597-4.783
							c0.1-0.104,2.319,1.87,4.958,4.408C600.082,231.347,602.14,233.489,602.04,233.592z"/>
					</g>
				</g>
			</g>
			<g>
				<g>
					<g>
						<path style="fill:#263238;" d="M602.212,150.719c0.166,0.152-1.769,2.131-4.269,4.407c-2.503,2.282-4.624,4.027-4.719,3.92
							c-0.096-0.107,1.868-2.025,4.368-4.305c1.249-1.14,2.395-2.156,3.232-2.882C601.674,151.126,602.166,150.71,602.212,150.719z"
							/>
					</g>
				</g>
			</g>
		</g>
		<g>
			<g>
				<g>
					<path style="fill:none;stroke:#4E585D;stroke-width:0.05;stroke-miterlimit:10;" d="M588.533,216.461"/>
				</g>
			</g>
		</g>
		<g>
			<g>
				<g>
					<g>
						<path style="fill:#263238;" d="M591.688,214.16c0.104,0.078-1.294,1.541-3.622,2.206c-2.322,0.689-4.287,0.207-4.241,0.085
							c0.014-0.159,1.905,0.07,4.095-0.585C590.118,215.243,591.59,214.033,591.688,214.16z"/>
					</g>
				</g>
			</g>
			<g>
				<g>
					<g>
						<path style="fill:#263238;" d="M593.731,216.041c0.039,0.042-0.455,0.592-1.448,1.245c-0.986,0.654-2.507,1.354-4.301,1.673
							c-1.796,0.312-3.465,0.172-4.615-0.107c-1.156-0.276-1.807-0.624-1.785-0.677c0.031-0.168,2.823,0.915,6.31,0.271
							C591.388,217.863,593.644,215.894,593.731,216.041z"/>
					</g>
				</g>
			</g>
		</g>
		<g>
			<g>
				<g>
					<g>
						<path style="fill:#263238;" d="M545.725,172.54c-0.051,0.152-1.835-0.563-4.115-0.357c-2.284,0.169-3.926,1.167-4.001,1.025
							c-0.098-0.089,1.522-1.357,3.959-1.544C544.001,171.45,545.806,172.436,545.725,172.54z"/>
					</g>
				</g>
			</g>
			<g>
				<g>
					<g>
						<path style="fill:#263238;" d="M546.617,170.787c-0.038,0.163-2.628-0.708-5.891-0.373c-3.268,0.291-5.645,1.638-5.713,1.485
							c-0.091-0.087,2.261-1.696,5.663-2.004C544.074,169.551,546.689,170.684,546.617,170.787z"/>
					</g>
				</g>
			</g>
		</g>
	</g>
</g>
</svg>
